<svg xmlns="http://www.w3.org/2000/svg" width="500" height="500" viewBox="0 0 500 500" preserveAspectRatio="xMidYMid meet">
  <defs>
    <linearGradient id="logoGradient" x1="0%" y1="0%" x2="100%" y2="100%">
      <stop offset="0%" style="stop-color:#10b981;stop-opacity:1" />
      <stop offset="100%" style="stop-color:#3b82f6;stop-opacity:1" />
    </linearGradient>
  </defs>
  
  <!-- Background circle -->
  <circle cx="250" cy="250" r="230" fill="none" stroke="url(#logoGradient)" stroke-width="8" opacity="0.3"/>
  
  <!-- Letter A -->
  <g transform="translate(120, 180)">
    <path d="M 0 120 L 25 0 L 55 0 L 80 120 L 55 120 L 50 95 L 30 95 L 25 120 Z M 35 75 L 45 75 L 40 55 Z" 
          fill="url(#logoGradient)" 
          stroke="url(#logoGradient)" 
          stroke-width="2"/>
  </g>
  
  <!-- Letter D -->
  <g transform="translate(280, 180)">
    <path d="M 0 0 L 0 120 L 35 120 C 55 120 70 105 70 85 L 70 35 C 70 15 55 0 35 0 Z M 25 25 L 35 25 C 45 25 50 30 50 35 L 50 85 C 50 90 45 95 35 95 L 25 95 Z" 
          fill="url(#logoGradient)" 
          stroke="url(#logoGradient)" 
          stroke-width="2"/>
  </g>
  
  <!-- Decorative elements -->
  <circle cx="250" cy="100" r="3" fill="url(#logoGradient)" opacity="0.6"/>
  <circle cx="400" cy="250" r="2" fill="url(#logoGradient)" opacity="0.4"/>
  <circle cx="250" cy="400" r="3" fill="url(#logoGradient)" opacity="0.6"/>
  <circle cx="100" cy="250" r="2" fill="url(#logoGradient)" opacity="0.4"/>
</svg>